<svg width="228" height="175" viewBox="0 0 228 175" fill="none" xmlns="http://www.w3.org/2000/svg">
<path d="M205.638 136.833C206.967 137.55 208.649 137.057 209.134 135.627C212.209 126.561 207.777 113.971 196.464 99.9193C184.067 84.5235 164.318 68.5013 141.141 55.0385C117.965 41.5757 93.0594 31.6585 71.3774 27.2589C49.6955 22.8593 32.8253 24.2996 24.1213 31.2933C15.4173 38.2871 15.5171 50.322 24.4009 65.0051C33.2847 79.6881 50.3017 95.9436 72.0681 110.539C93.8346 125.135 118.756 137.002 141.877 143.78C162.698 149.884 180.685 151.458 192.989 148.331C194.672 147.903 194.974 145.767 193.565 144.751C192.972 144.323 192.205 144.227 191.512 144.46C179.848 148.383 161.703 147.127 140.446 140.895C118.507 134.463 94.8587 123.203 74.2045 109.353C53.5503 95.5033 37.4029 80.0785 28.9731 66.1458C20.5432 52.213 20.4485 40.7931 28.7077 34.1567C36.967 27.5204 52.9751 26.1537 73.5491 30.3285C94.123 34.5032 117.756 43.9136 139.748 56.6885C161.74 69.4633 180.481 84.6668 192.243 99.2758C202.923 112.541 207.141 124.433 204.31 133.026C203.838 134.46 204.309 136.116 205.638 136.833Z" fill="black" fill-opacity="0.2"/>
<path d="M218.14 87.3275C219.65 87.3275 220.896 86.0952 220.644 84.6065C219.046 75.167 209.167 66.1908 192.539 59.196C174.319 51.532 149.33 46.8082 122.541 45.9638C95.751 45.1195 69.1233 48.2164 47.9522 54.639C26.7812 61.0615 12.6176 70.339 8.27794 80.6269C3.93824 90.9147 9.74027 101.459 24.5303 110.164C39.3204 118.868 62.0151 125.095 88.1017 127.606C114.188 130.117 141.756 128.728 165.323 123.715C186.545 119.201 203.123 112.047 212.467 103.453C213.745 102.277 212.997 100.253 211.274 100.028C210.549 99.9338 209.828 100.213 209.329 100.747C200.926 109.738 184.361 117.247 162.694 121.856C140.331 126.612 114.172 127.93 89.4187 125.547C64.6651 123.165 43.1302 117.256 29.0959 108.997C15.0616 100.737 9.55608 90.7314 13.674 80.9693C17.792 71.2072 31.2317 62.4037 51.3209 56.3094C71.4101 50.2151 96.6771 47.2763 122.098 48.0775C147.518 48.8787 171.23 53.3612 188.519 60.6336C204.217 67.2368 213.575 75.701 215.164 84.6076C215.429 86.094 216.63 87.3275 218.14 87.3275Z" fill="black" fill-opacity="0.2"/>
</svg>
