<svg width="47" height="47" viewBox="0 0 47 47" fill="none" xmlns="http://www.w3.org/2000/svg">
<path d="M23.5 3.91666C20.9283 3.91666 18.3818 4.42319 16.0058 5.40735C13.6298 6.3915 11.471 7.834 9.65251 9.65248C5.97993 13.3251 3.91669 18.3062 3.91669 23.5C3.91669 32.1558 9.5371 39.4996 17.3117 42.1042C18.2909 42.2608 18.6042 41.6537 18.6042 41.125V37.8154C13.1796 38.9904 12.0242 35.1912 12.0242 35.1912C11.1234 32.9196 9.85044 32.3125 9.85044 32.3125C8.06835 31.0983 9.98752 31.1375 9.98752 31.1375C11.9459 31.2746 12.9838 33.1546 12.9838 33.1546C14.6875 36.1312 17.5663 35.25 18.6825 34.78C18.8588 33.5071 19.3679 32.6454 19.9163 32.1558C15.5688 31.6662 11.0059 29.9821 11.0059 22.5208C11.0059 20.3471 11.75 18.6042 13.0229 17.2137C12.8271 16.7242 12.1417 14.6875 13.2188 12.0437C13.2188 12.0437 14.8638 11.515 18.6042 14.0412C20.1513 13.6104 21.8354 13.395 23.5 13.395C25.1646 13.395 26.8488 13.6104 28.3959 14.0412C32.1363 11.515 33.7813 12.0437 33.7813 12.0437C34.8584 14.6875 34.1729 16.7242 33.9771 17.2137C35.25 18.6042 35.9942 20.3471 35.9942 22.5208C35.9942 30.0017 31.4117 31.6467 27.0446 32.1362C27.7496 32.7433 28.3959 33.9379 28.3959 35.7592V41.125C28.3959 41.6537 28.7092 42.2804 29.7079 42.1042C37.4825 39.48 43.0834 32.1558 43.0834 23.5C43.0834 20.9283 42.5768 18.3817 41.5927 16.0058C40.6085 13.6298 39.166 11.471 37.3475 9.65248C35.529 7.834 33.3702 6.3915 30.9942 5.40735C28.6183 4.42319 26.0717 3.91666 23.5 3.91666Z" fill="#333333"/>
</svg>
