<svg width="364" height="365" viewBox="0 0 364 365" fill="none" xmlns="http://www.w3.org/2000/svg">
<g filter="url(#filter0_df_48_2227)">
<path d="M341.456 256.164C359.335 219.195 363.85 177.174 354.231 137.261C344.612 97.3477 321.455 62.0121 288.705 37.2747C255.956 12.5373 215.64 -0.0711893 174.627 1.59749C133.614 3.26617 94.4417 19.1088 63.7846 46.426C33.1274 73.7431 12.8823 110.845 6.49868 151.409C0.115043 191.973 7.98788 233.49 28.7758 268.886C49.5637 304.282 81.9804 331.367 120.503 345.526C159.025 359.685 201.269 360.041 240.037 346.535L238.323 341.606C200.695 354.715 159.693 354.369 122.304 340.627C84.9145 326.884 53.4511 300.596 33.2746 266.241C13.098 231.886 5.4567 191.59 11.6526 152.218C17.8485 112.847 37.4983 76.8365 67.2538 50.3227C97.0094 23.8088 135.03 8.43209 174.836 6.81248C214.643 5.19288 253.774 17.4306 285.56 41.4405C317.347 65.4504 339.823 99.7469 349.159 138.486C358.495 177.226 354.113 218.011 336.76 253.893L341.456 256.164Z" fill="black"/>
<path d="M349.341 256.417C346.932 261.397 340.945 263.483 335.967 261.076C330.99 258.669 328.907 252.68 331.316 247.7C333.725 242.719 339.712 240.633 344.689 243.041C349.667 245.448 351.749 251.437 349.341 256.417Z" fill="black"/>
<path d="M248.073 348.085C245.664 353.066 239.677 355.152 234.699 352.744C229.722 350.337 227.639 344.348 230.048 339.368C232.457 334.388 238.444 332.302 243.421 334.709C248.399 337.116 250.481 343.105 248.073 348.085Z" fill="black"/>
</g>
<defs>
<filter id="filter0_df_48_2227" x="0.3396" y="0.450783" width="362.832" height="363.96" filterUnits="userSpaceOnUse" color-interpolation-filters="sRGB">
<feFlood flood-opacity="0" result="BackgroundImageFix"/>
<feColorMatrix in="SourceAlpha" type="matrix" values="0 0 0 0 0 0 0 0 0 0 0 0 0 0 0 0 0 0 127 0" result="hardAlpha"/>
<feOffset dy="4"/>
<feGaussianBlur stdDeviation="2"/>
<feComposite in2="hardAlpha" operator="out"/>
<feColorMatrix type="matrix" values="0 0 0 0 0 0 0 0 0 0 0 0 0 0 0 0 0 0 0.25 0"/>
<feBlend mode="normal" in2="BackgroundImageFix" result="effect1_dropShadow_48_2227"/>
<feBlend mode="normal" in="SourceGraphic" in2="effect1_dropShadow_48_2227" result="shape"/>
<feGaussianBlur stdDeviation="0.5" result="effect2_foregroundBlur_48_2227"/>
</filter>
</defs>
</svg>
