<svg width="860" height="234" viewBox="0 0 860 234" fill="none" xmlns="http://www.w3.org/2000/svg">
<path d="M6.016 17.2V15.2H4.016V17.2H6.016ZM14.336 17.2H16.336V15.2H14.336V17.2ZM14.336 62V64H16.336V62H14.336ZM6.016 62H4.016V64H6.016V62ZM6.016 19.2H14.336V15.2H6.016V19.2ZM12.336 17.2V62H16.336V17.2H12.336ZM14.336 60H6.016V64H14.336V60ZM8.016 62V17.2H4.016V62H8.016ZM71.149 59.696L70.1812 61.4463L70.1934 61.453L70.2057 61.4596L71.149 59.696ZM62.573 51.44L60.847 52.4504L60.8515 52.4582L60.8562 52.4659L62.573 51.44ZM62.637 27.76L60.9202 26.7341L60.9202 26.7341L62.637 27.76ZM71.213 19.568L72.1649 21.327L72.1721 21.323L71.213 19.568ZM93.549 18.48L92.7706 20.3223L92.7706 20.3223L93.549 18.48ZM101.229 24.048L102.599 25.5049L103.992 24.1946L102.746 22.7442L101.229 24.048ZM95.853 29.104L94.3861 30.4635L95.7556 31.9411L97.2232 30.5609L95.853 29.104ZM75.629 25.904L76.5845 27.661L76.5963 27.6545L76.6081 27.648L75.629 25.904ZM69.933 31.472L71.6695 32.4643L71.6695 32.4643L69.933 31.472ZM69.933 47.728L71.6695 46.7357L71.6695 46.7357L69.933 47.728ZM75.629 53.36L74.6499 55.104L74.6616 55.1105L74.6735 55.117L75.629 53.36ZM95.853 50.032L97.2323 48.5837L95.7554 47.1771L94.378 48.6814L95.853 50.032ZM101.229 55.152L102.746 56.4558L103.985 55.0145L102.608 53.7037L101.229 55.152ZM93.485 60.72L92.7158 58.8738L92.7066 58.8777L93.485 60.72ZM83.437 60.64C79.2142 60.64 75.4467 59.7266 72.0923 57.9324L70.2057 61.4596C74.19 63.5907 78.6145 64.64 83.437 64.64V60.64ZM72.1168 57.9457C68.794 56.1084 66.196 53.6041 64.2898 50.4141L60.8562 52.4659C63.1313 56.2733 66.2507 59.2729 70.1812 61.4463L72.1168 57.9457ZM64.299 50.4296C62.4454 47.263 61.501 43.6703 61.501 39.6H57.501C57.501 44.319 58.6046 48.6197 60.847 52.4504L64.299 50.4296ZM61.501 39.6C61.501 35.5373 62.4629 31.9502 64.3538 28.7859L60.9202 26.7341C58.6297 30.5671 57.501 34.8734 57.501 39.6H61.501ZM64.3538 28.7859C66.2578 25.5997 68.8505 23.1206 72.1649 21.3269L70.2611 17.8091C66.3221 19.9407 63.1976 22.923 60.9202 26.7341L64.3538 28.7859ZM72.1721 21.323C75.5236 19.4914 79.2854 18.56 83.501 18.56V14.56C78.6712 14.56 74.241 15.634 70.2539 17.813L72.1721 21.323ZM83.501 18.56C86.9339 18.56 90.0146 19.1578 92.7706 20.3223L94.3274 16.6377C91.0248 15.2422 87.4068 14.56 83.501 14.56V18.56ZM92.7706 20.3223C95.5231 21.4853 97.8281 23.1599 99.7124 25.3518L102.746 22.7442C100.449 20.0721 97.6336 18.0347 94.3274 16.6377L92.7706 20.3223ZM99.8588 22.5911L94.4828 27.6471L97.2232 30.5609L102.599 25.5049L99.8588 22.5911ZM97.3199 27.7445C93.7018 23.8408 89.1824 21.856 83.885 21.856V25.856C88.0596 25.856 91.5188 27.3699 94.3861 30.4635L97.3199 27.7445ZM83.885 21.856C80.5057 21.856 77.4105 22.6102 74.6499 24.16L76.6081 27.648C78.7114 26.4671 81.1203 25.856 83.885 25.856V21.856ZM74.6735 24.147C71.9173 25.646 69.7473 27.7659 68.1965 30.4797L71.6695 32.4643C72.8494 30.3994 74.4767 28.8073 76.5845 27.661L74.6735 24.147ZM68.1965 30.4797C66.6415 33.201 65.885 36.2586 65.885 39.6H69.885C69.885 36.8827 70.4939 34.5216 71.6695 32.4643L68.1965 30.4797ZM65.885 39.6C65.885 42.9414 66.6415 45.999 68.1965 48.7203L71.6695 46.7357C70.4939 44.6784 69.885 42.3173 69.885 39.6H65.885ZM68.1965 48.7203C69.7441 51.4286 71.9065 53.5638 74.6499 55.104L76.6081 51.616C74.4875 50.4255 72.8525 48.8061 71.6695 46.7357L68.1965 48.7203ZM74.6735 55.117C77.4298 56.616 80.5165 57.344 83.885 57.344V53.344C81.1095 53.344 78.6922 52.7493 76.5845 51.603L74.6735 55.117ZM83.885 57.344C89.1908 57.344 93.7125 55.3312 97.328 51.3826L94.378 48.6814C91.5082 51.8155 88.0512 53.344 83.885 53.344V57.344ZM94.4737 51.4803L99.8497 56.6003L102.608 53.7037L97.2323 48.5837L94.4737 51.4803ZM99.7124 53.8482C97.8329 56.0346 95.5109 57.7092 92.7158 58.8738L94.2542 62.5662C97.6031 61.1708 100.444 59.1334 102.746 56.4558L99.7124 53.8482ZM92.7066 58.8777C89.9506 60.0422 86.8699 60.64 83.437 60.64V64.64C87.3428 64.64 90.9608 63.9578 94.2634 62.5623L92.7066 58.8777ZM146.599 51.632L148.435 50.8387L147.914 49.632H146.599V51.632ZM124.199 51.632V49.632H122.877L122.359 50.8483L124.199 51.632ZM119.783 62V64H121.106L121.624 62.7837L119.783 62ZM111.207 62L109.384 61.1793L108.114 64H111.207V62ZM131.367 17.2V15.2H130.074L129.544 16.3793L131.367 17.2ZM139.559 17.2L141.382 16.3771L140.851 15.2H139.559V17.2ZM159.783 62V64H162.881L161.606 61.1771L159.783 62ZM151.079 62L149.244 62.7933L149.765 64H151.079V62ZM143.847 45.104V47.104H146.888L145.684 44.3118L143.847 45.104ZM135.399 25.52L137.236 24.7278L135.393 20.4545L133.561 24.7329L135.399 25.52ZM127.015 45.104L125.177 44.3169L123.984 47.104H127.015V45.104ZM146.599 49.632H124.199V53.632H146.599V49.632ZM122.359 50.8483L117.943 61.2163L121.624 62.7837L126.04 52.4157L122.359 50.8483ZM119.783 60H111.207V64H119.783V60ZM113.031 62.8207L133.191 18.0207L129.544 16.3793L109.384 61.1793L113.031 62.8207ZM131.367 19.2H139.559V15.2H131.367V19.2ZM137.737 18.0229L157.961 62.8229L161.606 61.1771L141.382 16.3771L137.737 18.0229ZM159.783 60H151.079V64H159.783V60ZM152.915 61.2067L148.435 50.8387L144.764 52.4253L149.244 62.7933L152.915 61.2067ZM145.684 44.3118L137.236 24.7278L133.563 26.3122L142.011 45.8962L145.684 44.3118ZM133.561 24.7329L125.177 44.3169L128.854 45.8911L137.238 26.3071L133.561 24.7329ZM127.015 47.104H143.847V43.104H127.015V47.104ZM214.569 17.2H216.569V15.2H214.569V17.2ZM214.569 62V64H216.569V62H214.569ZM207.721 62L206.17 63.2629L206.77 64H207.721V62ZM183.017 31.664L184.568 30.4011L181.017 26.0407V31.664H183.017ZM183.017 62V64H185.017V62H183.017ZM174.761 62H172.761V64H174.761V62ZM174.761 17.2V15.2H172.761V17.2H174.761ZM181.609 17.2L183.16 15.9371L182.56 15.2H181.609V17.2ZM206.313 47.536L204.762 48.7989L208.313 53.1592V47.536H206.313ZM206.313 17.2V15.2H204.313V17.2H206.313ZM212.569 17.2V62H216.569V17.2H212.569ZM214.569 60H207.721V64H214.569V60ZM209.272 60.7371L184.568 30.4011L181.466 32.9269L206.17 63.2629L209.272 60.7371ZM181.017 31.664V62H185.017V31.664H181.017ZM183.017 60H174.761V64H183.017V60ZM176.761 62V17.2H172.761V62H176.761ZM174.761 19.2H181.609V15.2H174.761V19.2ZM180.058 18.4629L204.762 48.7989L207.864 46.2731L183.16 15.9371L180.058 18.4629ZM208.313 47.536V17.2H204.313V47.536H208.313ZM206.313 19.2H214.569V15.2H206.313V19.2ZM271.269 59.696L270.301 61.4463L270.313 61.453L270.326 61.4596L271.269 59.696ZM262.693 51.44L260.967 52.4504L260.972 52.4582L260.976 52.4659L262.693 51.44ZM262.757 27.76L261.04 26.7341L261.04 26.7341L262.757 27.76ZM271.333 19.568L272.285 21.327L272.292 21.323L271.333 19.568ZM293.669 18.48L292.891 20.3223L292.891 20.3223L293.669 18.48ZM301.349 24.048L302.719 25.5049L304.112 24.1946L302.866 22.7442L301.349 24.048ZM295.973 29.104L294.506 30.4635L295.876 31.9411L297.343 30.5609L295.973 29.104ZM275.749 25.904L276.705 27.661L276.716 27.6545L276.728 27.648L275.749 25.904ZM270.053 31.472L271.789 32.4643L271.789 32.4643L270.053 31.472ZM270.053 47.728L271.789 46.7357L271.789 46.7357L270.053 47.728ZM275.749 53.36L274.77 55.104L274.782 55.1105L274.793 55.117L275.749 53.36ZM295.973 50.032L297.352 48.5837L295.875 47.1771L294.498 48.6814L295.973 50.032ZM301.349 55.152L302.866 56.4558L304.105 55.0145L302.728 53.7037L301.349 55.152ZM293.605 60.72L292.836 58.8738L292.827 58.8777L293.605 60.72ZM283.557 60.64C279.334 60.64 275.567 59.7266 272.212 57.9324L270.326 61.4596C274.31 63.5907 278.735 64.64 283.557 64.64V60.64ZM272.237 57.9457C268.914 56.1084 266.316 53.6041 264.41 50.4141L260.976 52.4659C263.251 56.2733 266.371 59.2729 270.301 61.4463L272.237 57.9457ZM264.419 50.4296C262.565 47.263 261.621 43.6703 261.621 39.6H257.621C257.621 44.319 258.725 48.6197 260.967 52.4504L264.419 50.4296ZM261.621 39.6C261.621 35.5373 262.583 31.9502 264.474 28.7859L261.04 26.7341C258.75 30.5671 257.621 34.8734 257.621 39.6H261.621ZM264.474 28.7859C266.378 25.5997 268.971 23.1206 272.285 21.3269L270.381 17.8091C266.442 19.9407 263.318 22.923 261.04 26.7341L264.474 28.7859ZM272.292 21.323C275.644 19.4914 279.405 18.56 283.621 18.56V14.56C278.791 14.56 274.361 15.634 270.374 17.813L272.292 21.323ZM283.621 18.56C287.054 18.56 290.135 19.1578 292.891 20.3223L294.447 16.6377C291.145 15.2422 287.527 14.56 283.621 14.56V18.56ZM292.891 20.3223C295.643 21.4853 297.948 23.1599 299.832 25.3518L302.866 22.7442C300.569 20.0721 297.754 18.0347 294.447 16.6377L292.891 20.3223ZM299.979 22.5911L294.603 27.6471L297.343 30.5609L302.719 25.5049L299.979 22.5911ZM297.44 27.7445C293.822 23.8408 289.302 21.856 284.005 21.856V25.856C288.18 25.856 291.639 27.3699 294.506 30.4635L297.44 27.7445ZM284.005 21.856C280.626 21.856 277.531 22.6102 274.77 24.16L276.728 27.648C278.831 26.4671 281.24 25.856 284.005 25.856V21.856ZM274.793 24.147C272.037 25.646 269.867 27.7659 268.317 30.4797L271.789 32.4643C272.969 30.3994 274.597 28.8073 276.705 27.661L274.793 24.147ZM268.317 30.4797C266.761 33.201 266.005 36.2586 266.005 39.6H270.005C270.005 36.8827 270.614 34.5216 271.789 32.4643L268.317 30.4797ZM266.005 39.6C266.005 42.9414 266.761 45.999 268.317 48.7203L271.789 46.7357C270.614 44.6784 270.005 42.3173 270.005 39.6H266.005ZM268.317 48.7203C269.864 51.4286 272.027 53.5638 274.77 55.104L276.728 51.616C274.607 50.4255 272.973 48.8061 271.789 46.7357L268.317 48.7203ZM274.793 55.117C277.55 56.616 280.637 57.344 284.005 57.344V53.344C281.229 53.344 278.812 52.7493 276.705 51.603L274.793 55.117ZM284.005 57.344C289.311 57.344 293.833 55.3312 297.448 51.3826L294.498 48.6814C291.628 51.8155 288.171 53.344 284.005 53.344V57.344ZM294.594 51.4803L299.97 56.6003L302.728 53.7037L297.352 48.5837L294.594 51.4803ZM299.832 53.8482C297.953 56.0346 295.631 57.7092 292.836 58.8738L294.374 62.5662C297.723 61.1708 300.564 59.1334 302.866 56.4558L299.832 53.8482ZM292.827 58.8777C290.071 60.0422 286.99 60.64 283.557 60.64V64.64C287.463 64.64 291.081 63.9578 294.383 62.5623L292.827 58.8777ZM347.913 62L346.273 63.1442L346.87 64H347.913V62ZM338.761 48.88L340.401 47.7358L339.721 46.761L338.54 46.8922L338.761 48.88ZM326.921 48.944V46.944H324.921V48.944H326.921ZM326.921 62V64H328.921V62H326.921ZM318.601 62H316.601V64H318.601V62ZM318.601 17.2V15.2H316.601V17.2H318.601ZM347.145 19.12L346.328 20.9454L346.338 20.9498L347.145 19.12ZM353.801 24.624L355.483 23.5425L355.483 23.5425L353.801 24.624ZM353.609 41.84L351.958 40.7106L351.952 40.7206L351.945 40.7306L353.609 41.84ZM346.569 47.28L345.844 45.416L343.469 46.3395L344.931 48.4269L346.569 47.28ZM356.873 62V64H360.714L358.511 60.8531L356.873 62ZM344.905 26.544L343.639 28.0919L343.639 28.0919L344.905 26.544ZM326.921 24.24V22.24H324.921V24.24H326.921ZM326.921 42.096H324.921V44.096H326.921V42.096ZM344.905 39.792L346.171 41.3399L346.182 41.3314L346.192 41.3227L344.905 39.792ZM349.553 60.8558L340.401 47.7358L337.121 50.0242L346.273 63.1442L349.553 60.8558ZM338.54 46.8922C338.27 46.9222 337.784 46.944 337.033 46.944V50.944C337.818 50.944 338.484 50.9231 338.982 50.8678L338.54 46.8922ZM337.033 46.944H326.921V50.944H337.033V46.944ZM324.921 48.944V62H328.921V48.944H324.921ZM326.921 60H318.601V64H326.921V60ZM320.601 62V17.2H316.601V62H320.601ZM318.601 19.2H337.033V15.2H318.601V19.2ZM337.033 19.2C340.7 19.2 343.78 19.8046 346.328 20.9454L347.962 17.2946C344.793 15.8754 341.132 15.2 337.033 15.2V19.2ZM346.338 20.9498C348.924 22.0907 350.819 23.6837 352.119 25.7055L355.483 23.5425C353.711 20.7857 351.169 18.7093 347.952 17.2902L346.338 20.9498ZM352.119 25.7055C353.416 27.7242 354.105 30.1727 354.105 33.136H358.105C358.105 29.5286 357.258 26.3025 355.483 23.5425L352.119 25.7055ZM354.105 33.136C354.105 36.1635 353.363 38.6575 351.958 40.7106L355.26 42.9694C357.183 40.1585 358.105 36.8499 358.105 33.136H354.105ZM351.945 40.7306C350.58 42.7777 348.584 44.3506 345.844 45.416L347.294 49.144C350.698 47.8201 353.395 45.7663 355.273 42.9494L351.945 40.7306ZM344.931 48.4269L355.235 63.1469L358.511 60.8531L348.207 46.1331L344.931 48.4269ZM356.873 60H347.913V64H356.873V60ZM349.721 33.136C349.721 29.7967 348.598 26.9815 346.171 24.9961L343.639 28.0919C344.967 29.1785 345.721 30.758 345.721 33.136H349.721ZM346.171 24.9961C343.797 23.0536 340.517 22.24 336.649 22.24V26.24C340.034 26.24 342.258 26.9624 343.639 28.0919L346.171 24.9961ZM336.649 22.24H326.921V26.24H336.649V22.24ZM324.921 24.24V42.096H328.921V24.24H324.921ZM326.921 44.096H336.649V40.096H326.921V44.096ZM336.649 44.096C340.517 44.096 343.797 43.2824 346.171 41.3399L343.639 38.2441C342.258 39.3736 340.034 40.096 336.649 40.096V44.096ZM346.192 41.3227C348.598 39.2993 349.721 36.4765 349.721 33.136H345.721C345.721 35.5128 344.966 37.1274 343.618 38.2613L346.192 41.3227ZM408.293 55.024H410.293V53.024H408.293V55.024ZM408.293 62V64H410.293V62H408.293ZM374.693 62H372.693V64H374.693V62ZM374.693 17.2V15.2H372.693V17.2H374.693ZM407.397 17.2H409.397V15.2H407.397V17.2ZM407.397 24.176V26.176H409.397V24.176H407.397ZM383.013 24.176V22.176H381.013V24.176H383.013ZM383.013 35.824H381.013V37.824H383.013V35.824ZM404.645 35.824H406.645V33.824H404.645V35.824ZM404.645 42.672V44.672H406.645V42.672H404.645ZM383.013 42.672V40.672H381.013V42.672H383.013ZM383.013 55.024H381.013V57.024H383.013V55.024ZM406.293 55.024V62H410.293V55.024H406.293ZM408.293 60H374.693V64H408.293V60ZM376.693 62V17.2H372.693V62H376.693ZM374.693 19.2H407.397V15.2H374.693V19.2ZM405.397 17.2V24.176H409.397V17.2H405.397ZM407.397 22.176H383.013V26.176H407.397V22.176ZM381.013 24.176V35.824H385.013V24.176H381.013ZM383.013 37.824H404.645V33.824H383.013V37.824ZM402.645 35.824V42.672H406.645V35.824H402.645ZM404.645 40.672H383.013V44.672H404.645V40.672ZM381.013 42.672V55.024H385.013V42.672H381.013ZM383.013 57.024H408.293V53.024H383.013V57.024ZM455.904 51.632L457.74 50.8387L457.219 49.632H455.904V51.632ZM433.504 51.632V49.632H432.182L431.664 50.8483L433.504 51.632ZM429.088 62V64H430.41L430.929 62.7837L429.088 62ZM420.512 62L418.689 61.1793L417.419 64H420.512V62ZM440.672 17.2V15.2H439.379L438.849 16.3793L440.672 17.2ZM448.864 17.2L450.687 16.3771L450.156 15.2H448.864V17.2ZM469.088 62V64H472.186L470.911 61.1771L469.088 62ZM460.384 62L458.549 62.7933L459.07 64H460.384V62ZM453.152 45.104V47.104H456.193L454.989 44.3118L453.152 45.104ZM444.704 25.52L446.541 24.7278L444.698 20.4545L442.866 24.7329L444.704 25.52ZM436.32 45.104L434.482 44.3169L433.289 47.104H436.32V45.104ZM455.904 49.632H433.504V53.632H455.904V49.632ZM431.664 50.8483L427.248 61.2163L430.929 62.7837L435.345 52.4157L431.664 50.8483ZM429.088 60H420.512V64H429.088V60ZM422.336 62.8207L442.496 18.0207L438.849 16.3793L418.689 61.1793L422.336 62.8207ZM440.672 19.2H448.864V15.2H440.672V19.2ZM447.042 18.0229L467.266 62.8229L470.911 61.1771L450.687 16.3771L447.042 18.0229ZM469.088 60H460.384V64H469.088V60ZM462.22 61.2067L457.74 50.8387L454.069 52.4253L458.549 62.7933L462.22 61.2067ZM454.989 44.3118L446.541 24.7278L442.868 26.3122L451.316 45.8962L454.989 44.3118ZM442.866 24.7329L434.482 44.3169L438.159 45.8911L446.543 26.3071L442.866 24.7329ZM436.32 47.104H453.152V43.104H436.32V47.104ZM490.904 24.24H492.904V22.24H490.904V24.24ZM476.056 24.24H474.056V26.24H476.056V24.24ZM476.056 17.2V15.2H474.056V17.2H476.056ZM514.072 17.2H516.072V15.2H514.072V17.2ZM514.072 24.24V26.24H516.072V24.24H514.072ZM499.224 24.24V22.24H497.224V24.24H499.224ZM499.224 62V64H501.224V62H499.224ZM490.904 62H488.904V64H490.904V62ZM490.904 22.24H476.056V26.24H490.904V22.24ZM478.056 24.24V17.2H474.056V24.24H478.056ZM476.056 19.2H514.072V15.2H476.056V19.2ZM512.072 17.2V24.24H516.072V17.2H512.072ZM514.072 22.24H499.224V26.24H514.072V22.24ZM497.224 24.24V62H501.224V24.24H497.224ZM499.224 60H490.904V64H499.224V60ZM492.904 62V24.24H488.904V62H492.904ZM563.196 55.024H565.196V53.024H563.196V55.024ZM563.196 62V64H565.196V62H563.196ZM529.596 62H527.596V64H529.596V62ZM529.596 17.2V15.2H527.596V17.2H529.596ZM562.3 17.2H564.3V15.2H562.3V17.2ZM562.3 24.176V26.176H564.3V24.176H562.3ZM537.916 24.176V22.176H535.916V24.176H537.916ZM537.916 35.824H535.916V37.824H537.916V35.824ZM559.548 35.824H561.548V33.824H559.548V35.824ZM559.548 42.672V44.672H561.548V42.672H559.548ZM537.916 42.672V40.672H535.916V42.672H537.916ZM537.916 55.024H535.916V57.024H537.916V55.024ZM561.196 55.024V62H565.196V55.024H561.196ZM563.196 60H529.596V64H563.196V60ZM531.596 62V17.2H527.596V62H531.596ZM529.596 19.2H562.3V15.2H529.596V19.2ZM560.3 17.2V24.176H564.3V17.2H560.3ZM562.3 22.176H537.916V26.176H562.3V22.176ZM535.916 24.176V35.824H539.916V24.176H535.916ZM537.916 37.824H559.548V33.824H537.916V37.824ZM557.548 35.824V42.672H561.548V35.824H557.548ZM559.548 40.672H537.916V44.672H559.548V40.672ZM535.916 42.672V55.024H539.916V42.672H535.916ZM537.916 57.024H563.196V53.024H537.916V57.024Z" fill="black"/>
<path d="M95.072 129.632H72.672L68.256 140H59.68L79.84 95.2H88.032L108.256 140H99.552L95.072 129.632ZM92.32 123.104L83.872 103.52L75.488 123.104H92.32ZM153.762 95.2V140H146.914L122.21 109.664V140H113.954V95.2H120.802L145.506 125.536V95.2H153.762ZM212.51 129.632H190.11L185.694 140H177.117L197.278 95.2H205.47L225.694 140H216.99L212.51 129.632ZM209.757 123.104L201.31 103.52L192.926 123.104H209.757ZM294.488 95.2L279.64 140H270.808L259.736 106.848L248.472 140H239.576L224.728 95.2H233.368L244.504 129.248L256.088 95.2H263.768L275.096 129.44L286.552 95.2H294.488ZM334.866 133.024V140H301.266V95.2H333.97V102.176H309.586V113.824H331.218V120.672H309.586V133.024H334.866ZM358.029 140.64C354.573 140.64 351.224 140.149 347.981 139.168C344.781 138.187 342.242 136.885 340.365 135.264L343.245 128.8C345.08 130.251 347.32 131.445 349.965 132.384C352.653 133.28 355.341 133.728 358.029 133.728C361.357 133.728 363.832 133.195 365.453 132.128C367.117 131.061 367.949 129.653 367.949 127.904C367.949 126.624 367.48 125.579 366.541 124.768C365.645 123.915 364.493 123.253 363.085 122.784C361.677 122.315 359.757 121.781 357.325 121.184C353.912 120.373 351.138 119.563 349.005 118.752C346.914 117.941 345.101 116.683 343.565 114.976C342.072 113.227 341.325 110.88 341.325 107.936C341.325 105.461 341.986 103.221 343.309 101.216C344.674 99.168 346.701 97.5467 349.389 96.352C352.12 95.1573 355.448 94.56 359.373 94.56C362.104 94.56 364.792 94.9013 367.437 95.584C370.082 96.2667 372.365 97.248 374.285 98.528L371.661 104.992C369.698 103.84 367.65 102.965 365.517 102.368C363.384 101.771 361.314 101.472 359.309 101.472C356.024 101.472 353.57 102.027 351.949 103.136C350.37 104.245 349.581 105.717 349.581 107.552C349.581 108.832 350.029 109.877 350.925 110.688C351.864 111.499 353.037 112.139 354.445 112.608C355.853 113.077 357.773 113.611 360.205 114.208C363.533 114.976 366.264 115.787 368.397 116.64C370.53 117.451 372.344 118.709 373.837 120.416C375.373 122.123 376.141 124.427 376.141 127.328C376.141 129.803 375.458 132.043 374.093 134.048C372.77 136.053 370.744 137.653 368.013 138.848C365.282 140.043 361.954 140.64 358.029 140.64ZM405.319 140.64C400.754 140.64 396.636 139.659 392.967 137.696C389.298 135.691 386.418 132.939 384.327 129.44C382.236 125.899 381.191 121.952 381.191 117.6C381.191 113.248 382.236 109.323 384.327 105.824C386.418 102.283 389.298 99.5307 392.967 97.568C396.636 95.5627 400.754 94.56 405.319 94.56C409.884 94.56 414.002 95.5627 417.671 97.568C421.34 99.5307 424.22 102.261 426.311 105.76C428.402 109.259 429.447 113.205 429.447 117.6C429.447 121.995 428.402 125.941 426.311 129.44C424.22 132.939 421.34 135.691 417.671 137.696C414.002 139.659 409.884 140.64 405.319 140.64ZM405.319 133.344C408.306 133.344 410.994 132.683 413.383 131.36C415.772 129.995 417.65 128.117 419.015 125.728C420.38 123.296 421.063 120.587 421.063 117.6C421.063 114.613 420.38 111.925 419.015 109.536C417.65 107.104 415.772 105.227 413.383 103.904C410.994 102.539 408.306 101.856 405.319 101.856C402.332 101.856 399.644 102.539 397.255 103.904C394.866 105.227 392.988 107.104 391.623 109.536C390.258 111.925 389.575 114.613 389.575 117.6C389.575 120.587 390.258 123.296 391.623 125.728C392.988 128.117 394.866 129.995 397.255 131.36C399.644 132.683 402.332 133.344 405.319 133.344ZM479.418 140L479.354 110.304L464.634 134.88H460.922L446.202 110.688V140H438.266V95.2H445.114L462.906 124.896L480.378 95.2H487.226L487.29 140H479.418ZM532.991 133.024V140H499.391V95.2H532.095V102.176H507.711V113.824H529.343V120.672H507.711V133.024H532.991ZM625.426 95.2L610.578 140H601.746L590.674 106.848L579.41 140H570.514L555.666 95.2H564.306L575.442 129.248L587.026 95.2H594.706L606.034 129.44L617.49 95.2H625.426ZM665.804 133.024V140H632.204V95.2H664.908V102.176H640.524V113.824H662.156V120.672H640.524V133.024H665.804ZM706.823 116.704C709.297 117.515 711.26 118.88 712.711 120.8C714.161 122.677 714.887 125.024 714.887 127.84C714.887 131.723 713.393 134.731 710.407 136.864C707.42 138.955 703.068 140 697.351 140H675.079V95.2H696.071C701.361 95.2 705.436 96.2453 708.295 98.336C711.153 100.384 712.583 103.221 712.583 106.848C712.583 109.067 712.071 111.029 711.047 112.736C710.023 114.443 708.615 115.765 706.823 116.704ZM683.399 101.728V114.08H695.175C698.076 114.08 700.295 113.568 701.831 112.544C703.409 111.477 704.199 109.941 704.199 107.936C704.199 105.888 703.409 104.352 701.831 103.328C700.295 102.261 698.076 101.728 695.175 101.728H683.399ZM696.839 133.472C703.281 133.472 706.503 131.317 706.503 127.008C706.503 122.699 703.281 120.544 696.839 120.544H683.399V133.472H696.839ZM737.654 140.64C734.198 140.64 730.849 140.149 727.606 139.168C724.406 138.187 721.867 136.885 719.99 135.264L722.87 128.8C724.705 130.251 726.945 131.445 729.59 132.384C732.278 133.28 734.966 133.728 737.654 133.728C740.982 133.728 743.457 133.195 745.078 132.128C746.742 131.061 747.574 129.653 747.574 127.904C747.574 126.624 747.105 125.579 746.166 124.768C745.27 123.915 744.118 123.253 742.71 122.784C741.302 122.315 739.382 121.781 736.95 121.184C733.537 120.373 730.763 119.563 728.63 118.752C726.539 117.941 724.726 116.683 723.19 114.976C721.697 113.227 720.95 110.88 720.95 107.936C720.95 105.461 721.611 103.221 722.934 101.216C724.299 99.168 726.326 97.5467 729.014 96.352C731.745 95.1573 735.073 94.56 738.998 94.56C741.729 94.56 744.417 94.9013 747.062 95.584C749.707 96.2667 751.99 97.248 753.91 98.528L751.286 104.992C749.323 103.84 747.275 102.965 745.142 102.368C743.009 101.771 740.939 101.472 738.934 101.472C735.649 101.472 733.195 102.027 731.574 103.136C729.995 104.245 729.206 105.717 729.206 107.552C729.206 108.832 729.654 109.877 730.55 110.688C731.489 111.499 732.662 112.139 734.07 112.608C735.478 113.077 737.398 113.611 739.83 114.208C743.158 114.976 745.889 115.787 748.022 116.64C750.155 117.451 751.969 118.709 753.462 120.416C754.998 122.123 755.766 124.427 755.766 127.328C755.766 129.803 755.083 132.043 753.718 134.048C752.395 136.053 750.369 137.653 747.638 138.848C744.907 140.043 741.579 140.64 737.654 140.64ZM764.016 95.2H772.336V140H764.016V95.2ZM793.542 102.24H778.694V95.2H816.71V102.24H801.862V140H793.542V102.24ZM856.554 133.024V140H822.954V95.2H855.658V102.176H831.274V113.824H852.906V120.672H831.274V133.024H856.554Z" fill="black"/>
<path d="M74.336 180.176V193.808H95.968V200.848H74.336V218H66.016V173.2H98.72V180.176H74.336ZM127.194 218.64C122.629 218.64 118.511 217.659 114.842 215.696C111.173 213.691 108.293 210.939 106.202 207.44C104.111 203.899 103.066 199.952 103.066 195.6C103.066 191.248 104.111 187.323 106.202 183.824C108.293 180.283 111.173 177.531 114.842 175.568C118.511 173.563 122.629 172.56 127.194 172.56C131.759 172.56 135.877 173.563 139.546 175.568C143.215 177.531 146.095 180.261 148.186 183.76C150.277 187.259 151.322 191.205 151.322 195.6C151.322 199.995 150.277 203.941 148.186 207.44C146.095 210.939 143.215 213.691 139.546 215.696C135.877 217.659 131.759 218.64 127.194 218.64ZM127.194 211.344C130.181 211.344 132.869 210.683 135.258 209.36C137.647 207.995 139.525 206.117 140.89 203.728C142.255 201.296 142.938 198.587 142.938 195.6C142.938 192.613 142.255 189.925 140.89 187.536C139.525 185.104 137.647 183.227 135.258 181.904C132.869 180.539 130.181 179.856 127.194 179.856C124.207 179.856 121.519 180.539 119.13 181.904C116.741 183.227 114.863 185.104 113.498 187.536C112.133 189.925 111.45 192.613 111.45 195.6C111.45 198.587 112.133 201.296 113.498 203.728C114.863 206.117 116.741 207.995 119.13 209.36C121.519 210.683 124.207 211.344 127.194 211.344ZM189.453 218L180.301 204.88C179.917 204.923 179.341 204.944 178.573 204.944H168.461V218H160.141V173.2H178.573C182.456 173.2 185.826 173.84 188.685 175.12C191.586 176.4 193.805 178.235 195.341 180.624C196.877 183.013 197.645 185.851 197.645 189.136C197.645 192.507 196.813 195.408 195.149 197.84C193.528 200.272 191.181 202.085 188.109 203.28L198.413 218H189.453ZM189.261 189.136C189.261 186.277 188.322 184.08 186.445 182.544C184.568 181.008 181.816 180.24 178.189 180.24H168.461V198.096H178.189C181.816 198.096 184.568 197.328 186.445 195.792C188.322 194.213 189.261 191.995 189.261 189.136Z" fill="black"/>
<path d="M74.336 180.176V179.176H73.336V180.176H74.336ZM74.336 193.808H73.336V194.808H74.336V193.808ZM95.968 193.808H96.968V192.808H95.968V193.808ZM95.968 200.848V201.848H96.968V200.848H95.968ZM74.336 200.848V199.848H73.336V200.848H74.336ZM74.336 218V219H75.336V218H74.336ZM66.016 218H65.016V219H66.016V218ZM66.016 173.2V172.2H65.016V173.2H66.016ZM98.72 173.2H99.72V172.2H98.72V173.2ZM98.72 180.176V181.176H99.72V180.176H98.72ZM73.336 180.176V193.808H75.336V180.176H73.336ZM74.336 194.808H95.968V192.808H74.336V194.808ZM94.968 193.808V200.848H96.968V193.808H94.968ZM95.968 199.848H74.336V201.848H95.968V199.848ZM73.336 200.848V218H75.336V200.848H73.336ZM74.336 217H66.016V219H74.336V217ZM67.016 218V173.2H65.016V218H67.016ZM66.016 174.2H98.72V172.2H66.016V174.2ZM97.72 173.2V180.176H99.72V173.2H97.72ZM98.72 179.176H74.336V181.176H98.72V179.176ZM114.842 215.696L114.362 216.574L114.37 216.578L114.842 215.696ZM106.202 207.44L105.341 207.948L105.344 207.953L106.202 207.44ZM106.202 183.824L107.06 184.337L107.063 184.332L106.202 183.824ZM114.842 175.568L115.314 176.45L115.322 176.446L114.842 175.568ZM139.546 175.568L139.066 176.446L139.074 176.45L139.546 175.568ZM148.186 183.76L147.328 184.273L148.186 183.76ZM148.186 207.44L147.328 206.927L148.186 207.44ZM139.546 215.696L140.018 216.578L140.026 216.574L139.546 215.696ZM135.258 209.36L135.742 210.235L135.754 210.228L135.258 209.36ZM140.89 203.728L141.758 204.224L141.762 204.218L140.89 203.728ZM140.89 187.536L140.018 188.026L140.022 188.032L140.89 187.536ZM135.258 181.904L134.762 182.772L134.774 182.779L135.258 181.904ZM119.13 181.904L119.614 182.779L119.626 182.772L119.13 181.904ZM113.498 187.536L114.366 188.032L114.37 188.026L113.498 187.536ZM113.498 203.728L112.626 204.218L112.63 204.224L113.498 203.728ZM119.13 209.36L118.634 210.228L118.646 210.235L119.13 209.36ZM127.194 217.64C122.777 217.64 118.824 216.692 115.314 214.814L114.37 216.578C118.199 218.625 122.48 219.64 127.194 219.64V217.64ZM115.322 214.818C111.805 212.896 109.057 210.268 107.06 206.927L105.344 207.953C107.528 211.609 110.541 214.485 114.362 216.574L115.322 214.818ZM107.063 206.932C105.069 203.553 104.066 199.784 104.066 195.6H102.066C102.066 200.12 103.154 204.244 105.341 207.948L107.063 206.932ZM104.066 195.6C104.066 191.416 105.069 187.67 107.06 184.337L105.344 183.311C103.154 186.975 102.066 191.08 102.066 195.6H104.066ZM107.063 184.332C109.059 180.951 111.804 178.327 115.314 176.45L114.37 174.686C110.541 176.734 107.526 179.615 105.341 183.316L107.063 184.332ZM115.322 176.446C118.831 174.528 122.781 173.56 127.194 173.56V171.56C122.477 171.56 118.192 172.598 114.362 174.69L115.322 176.446ZM127.194 173.56C131.607 173.56 135.557 174.528 139.066 176.446L140.026 174.69C136.196 172.598 131.911 171.56 127.194 171.56V173.56ZM139.074 176.45C142.587 178.329 145.332 180.933 147.328 184.273L149.044 183.247C146.859 179.589 143.843 176.733 140.018 174.686L139.074 176.45ZM147.328 184.273C149.318 187.604 150.322 191.371 150.322 195.6H152.322C152.322 191.039 151.235 186.913 149.044 183.247L147.328 184.273ZM150.322 195.6C150.322 199.829 149.318 203.596 147.328 206.927L149.044 207.953C151.235 204.287 152.322 200.161 152.322 195.6H150.322ZM147.328 206.927C145.331 210.268 142.583 212.896 139.066 214.818L140.026 216.574C143.847 214.485 146.86 211.609 149.044 207.953L147.328 206.927ZM139.074 214.814C135.564 216.692 131.611 217.64 127.194 217.64V219.64C131.908 219.64 136.189 218.625 140.018 216.578L139.074 214.814ZM127.194 212.344C130.334 212.344 133.191 211.647 135.742 210.235L134.774 208.485C132.546 209.718 130.027 210.344 127.194 210.344V212.344ZM135.754 210.228C138.299 208.774 140.304 206.769 141.758 204.224L140.022 203.232C138.745 205.466 136.996 207.215 134.762 208.492L135.754 210.228ZM141.762 204.218C143.217 201.625 143.938 198.746 143.938 195.6H141.938C141.938 198.428 141.293 200.967 140.018 203.238L141.762 204.218ZM143.938 195.6C143.938 192.455 143.217 189.593 141.758 187.04L140.022 188.032C141.293 190.258 141.938 192.772 141.938 195.6H143.938ZM141.762 187.046C140.308 184.456 138.298 182.444 135.742 181.029L134.774 182.779C136.997 184.01 138.742 185.752 140.018 188.026L141.762 187.046ZM135.754 181.036C133.201 179.577 130.339 178.856 127.194 178.856V180.856C130.022 180.856 132.536 181.501 134.762 182.772L135.754 181.036ZM127.194 178.856C124.049 178.856 121.187 179.577 118.634 181.036L119.626 182.772C121.852 181.501 124.366 180.856 127.194 180.856V178.856ZM118.646 181.029C116.09 182.444 114.08 184.456 112.626 187.046L114.37 188.026C115.646 185.752 117.391 184.01 119.614 182.779L118.646 181.029ZM112.63 187.04C111.171 189.593 110.45 192.455 110.45 195.6H112.45C112.45 192.772 113.095 190.258 114.366 188.032L112.63 187.04ZM110.45 195.6C110.45 198.746 111.171 201.625 112.626 204.218L114.37 203.238C113.095 200.967 112.45 198.428 112.45 195.6H110.45ZM112.63 204.224C114.084 206.769 116.089 208.774 118.634 210.228L119.626 208.492C117.392 207.215 115.643 205.466 114.366 203.232L112.63 204.224ZM118.646 210.235C121.197 211.647 124.054 212.344 127.194 212.344V210.344C124.361 210.344 121.842 209.718 119.614 208.485L118.646 210.235ZM189.453 218L188.633 218.572L188.931 219H189.453V218ZM180.301 204.88L181.121 204.308L180.781 203.82L180.191 203.886L180.301 204.88ZM168.461 204.944V203.944H167.461V204.944H168.461ZM168.461 218V219H169.461V218H168.461ZM160.141 218H159.141V219H160.141V218ZM160.141 173.2V172.2H159.141V173.2H160.141ZM188.685 175.12L188.276 176.033L188.281 176.035L188.685 175.12ZM195.341 180.624L196.182 180.083L196.182 180.083L195.341 180.624ZM195.149 197.84L194.324 197.275L194.317 197.285L195.149 197.84ZM188.109 203.28L187.747 202.348L186.559 202.81L187.29 203.853L188.109 203.28ZM198.413 218V219H200.334L199.232 217.427L198.413 218ZM186.445 182.544L185.812 183.318V183.318L186.445 182.544ZM168.461 180.24V179.24H167.461V180.24H168.461ZM168.461 198.096H167.461V199.096H168.461V198.096ZM186.445 195.792L187.078 196.566L187.089 196.557L186.445 195.792ZM190.273 217.428L181.121 204.308L179.481 205.452L188.633 218.572L190.273 217.428ZM180.191 203.886C179.864 203.922 179.333 203.944 178.573 203.944V205.944C179.349 205.944 179.97 205.923 180.411 205.874L180.191 203.886ZM178.573 203.944H168.461V205.944H178.573V203.944ZM167.461 204.944V218H169.461V204.944H167.461ZM168.461 217H160.141V219H168.461V217ZM161.141 218V173.2H159.141V218H161.141ZM160.141 174.2H178.573V172.2H160.141V174.2ZM178.573 174.2C182.348 174.2 185.573 174.822 188.276 176.033L189.094 174.207C186.08 172.858 182.564 172.2 178.573 172.2V174.2ZM188.281 176.035C191.025 177.245 193.082 178.959 194.5 181.165L196.182 180.083C194.528 177.51 192.148 175.555 189.089 174.205L188.281 176.035ZM194.5 181.165C195.917 183.369 196.645 186.012 196.645 189.136H198.645C198.645 185.69 197.837 182.658 196.182 180.083L194.5 181.165ZM196.645 189.136C196.645 192.335 195.858 195.033 194.324 197.275L195.974 198.405C197.768 195.783 198.645 192.678 198.645 189.136H196.645ZM194.317 197.285C192.824 199.525 190.652 201.218 187.747 202.348L188.471 204.212C191.71 202.953 194.231 201.019 195.981 198.395L194.317 197.285ZM187.29 203.853L197.594 218.573L199.232 217.427L188.928 202.707L187.29 203.853ZM198.413 217H189.453V219H198.413V217ZM190.261 189.136C190.261 186.037 189.23 183.531 187.078 181.77L185.812 183.318C187.414 184.629 188.261 186.518 188.261 189.136H190.261ZM187.078 181.77C184.952 180.031 181.937 179.24 178.189 179.24V181.24C181.695 181.24 184.183 181.985 185.812 183.318L187.078 181.77ZM178.189 179.24H168.461V181.24H178.189V179.24ZM167.461 180.24V198.096H169.461V180.24H167.461ZM168.461 199.096H178.189V197.096H168.461V199.096ZM178.189 199.096C181.937 199.096 184.952 198.305 187.078 196.566L185.812 195.018C184.183 196.351 181.695 197.096 178.189 197.096V199.096ZM187.089 196.557C189.23 194.756 190.261 192.236 190.261 189.136H188.261C188.261 191.754 187.414 193.67 185.801 195.027L187.089 196.557ZM243.969 202.192L243.113 201.674L242.969 201.913V202.192H243.969ZM243.969 218V219H244.969V218H243.969ZM235.649 218H234.649V219H235.649V218ZM235.649 202.32H236.649V202.041L236.505 201.803L235.649 202.32ZM218.049 173.2V172.2H216.276L217.193 173.717L218.049 173.2ZM226.945 173.2L227.802 172.685L227.511 172.2H226.945V173.2ZM240.065 195.024L239.208 195.539L240.061 196.958L240.92 195.543L240.065 195.024ZM253.313 173.2V172.2H252.75L252.458 172.681L253.313 173.2ZM261.505 173.2L262.361 173.718L263.279 172.2H261.505V173.2ZM242.969 202.192V218H244.969V202.192H242.969ZM243.969 217H235.649V219H243.969V217ZM236.649 218V202.32H234.649V218H236.649ZM236.505 201.803L218.905 172.683L217.193 173.717L234.793 202.837L236.505 201.803ZM218.049 174.2H226.945V172.2H218.049V174.2ZM226.088 173.715L239.208 195.539L240.922 194.509L227.802 172.685L226.088 173.715ZM240.92 195.543L254.168 173.719L252.458 172.681L239.21 194.505L240.92 195.543ZM253.313 174.2H261.505V172.2H253.313V174.2ZM260.649 172.682L243.113 201.674L244.825 202.71L262.361 173.718L260.649 172.682ZM273.592 215.696L273.112 216.574L273.12 216.578L273.592 215.696ZM264.952 207.44L264.091 207.948L264.094 207.953L264.952 207.44ZM264.952 183.824L265.81 184.337L265.813 184.332L264.952 183.824ZM273.592 175.568L274.064 176.45L274.072 176.446L273.592 175.568ZM298.296 175.568L297.816 176.446L297.824 176.45L298.296 175.568ZM306.936 183.76L306.078 184.273L306.936 183.76ZM306.936 207.44L306.078 206.927L306.936 207.44ZM298.296 215.696L298.768 216.578L298.776 216.574L298.296 215.696ZM294.008 209.36L294.492 210.235L294.504 210.228L294.008 209.36ZM299.64 203.728L300.508 204.224L300.512 204.218L299.64 203.728ZM299.64 187.536L298.768 188.026L298.772 188.032L299.64 187.536ZM294.008 181.904L293.512 182.772L293.524 182.779L294.008 181.904ZM277.88 181.904L278.364 182.779L278.376 182.772L277.88 181.904ZM272.248 187.536L273.116 188.032L273.12 188.026L272.248 187.536ZM272.248 203.728L271.376 204.218L271.38 204.224L272.248 203.728ZM277.88 209.36L277.384 210.228L277.396 210.235L277.88 209.36ZM285.944 217.64C281.527 217.64 277.574 216.692 274.064 214.814L273.12 216.578C276.949 218.625 281.23 219.64 285.944 219.64V217.64ZM274.072 214.818C270.555 212.896 267.807 210.268 265.81 206.927L264.094 207.953C266.278 211.609 269.291 214.485 273.112 216.574L274.072 214.818ZM265.813 206.932C263.819 203.553 262.816 199.784 262.816 195.6H260.816C260.816 200.12 261.904 204.244 264.091 207.948L265.813 206.932ZM262.816 195.6C262.816 191.416 263.819 187.67 265.81 184.337L264.094 183.311C261.904 186.975 260.816 191.08 260.816 195.6H262.816ZM265.813 184.332C267.809 180.951 270.554 178.327 274.064 176.45L273.12 174.686C269.291 176.734 266.276 179.615 264.091 183.316L265.813 184.332ZM274.072 176.446C277.581 174.528 281.531 173.56 285.944 173.56V171.56C281.227 171.56 276.942 172.598 273.112 174.69L274.072 176.446ZM285.944 173.56C290.357 173.56 294.307 174.528 297.816 176.446L298.776 174.69C294.946 172.598 290.661 171.56 285.944 171.56V173.56ZM297.824 176.45C301.337 178.329 304.082 180.933 306.078 184.273L307.794 183.247C305.609 179.589 302.593 176.733 298.768 174.686L297.824 176.45ZM306.078 184.273C308.068 187.604 309.072 191.371 309.072 195.6H311.072C311.072 191.039 309.985 186.913 307.794 183.247L306.078 184.273ZM309.072 195.6C309.072 199.829 308.068 203.596 306.078 206.927L307.794 207.953C309.985 204.287 311.072 200.161 311.072 195.6H309.072ZM306.078 206.927C304.081 210.268 301.333 212.896 297.816 214.818L298.776 216.574C302.597 214.485 305.61 211.609 307.794 207.953L306.078 206.927ZM297.824 214.814C294.314 216.692 290.361 217.64 285.944 217.64V219.64C290.658 219.64 294.939 218.625 298.768 216.578L297.824 214.814ZM285.944 212.344C289.084 212.344 291.941 211.647 294.492 210.235L293.524 208.485C291.296 209.718 288.777 210.344 285.944 210.344V212.344ZM294.504 210.228C297.049 208.774 299.054 206.769 300.508 204.224L298.772 203.232C297.495 205.466 295.746 207.215 293.512 208.492L294.504 210.228ZM300.512 204.218C301.967 201.625 302.688 198.746 302.688 195.6H300.688C300.688 198.428 300.043 200.967 298.768 203.238L300.512 204.218ZM302.688 195.6C302.688 192.455 301.967 189.593 300.508 187.04L298.772 188.032C300.043 190.258 300.688 192.772 300.688 195.6H302.688ZM300.512 187.046C299.058 184.456 297.048 182.444 294.492 181.029L293.524 182.779C295.747 184.01 297.492 185.752 298.768 188.026L300.512 187.046ZM294.504 181.036C291.951 179.577 289.089 178.856 285.944 178.856V180.856C288.772 180.856 291.286 181.501 293.512 182.772L294.504 181.036ZM285.944 178.856C282.799 178.856 279.937 179.577 277.384 181.036L278.376 182.772C280.602 181.501 283.116 180.856 285.944 180.856V178.856ZM277.396 181.029C274.84 182.444 272.83 184.456 271.376 187.046L273.12 188.026C274.396 185.752 276.141 184.01 278.364 182.779L277.396 181.029ZM271.38 187.04C269.921 189.593 269.2 192.455 269.2 195.6H271.2C271.2 192.772 271.845 190.258 273.116 188.032L271.38 187.04ZM269.2 195.6C269.2 198.746 269.921 201.625 271.376 204.218L273.12 203.238C271.845 200.967 271.2 198.428 271.2 195.6H269.2ZM271.38 204.224C272.834 206.769 274.839 208.774 277.384 210.228L278.376 208.492C276.142 207.215 274.393 205.466 273.116 203.232L271.38 204.224ZM277.396 210.235C279.947 211.647 282.804 212.344 285.944 212.344V210.344C283.111 210.344 280.592 209.718 278.364 208.485L277.396 210.235ZM323.691 213.456L322.98 214.159L322.984 214.163L323.691 213.456ZM318.507 173.2V172.2H317.507V173.2H318.507ZM326.827 173.2H327.827V172.2H326.827V173.2ZM349.547 173.2V172.2H348.547V173.2H349.547ZM357.739 173.2H358.739V172.2H357.739V173.2ZM352.555 213.456L351.844 212.753L351.844 212.753L352.555 213.456ZM338.155 217.64C332.159 217.64 327.62 215.971 324.398 212.749L322.984 214.163C326.674 217.853 331.777 219.64 338.155 219.64V217.64ZM324.402 212.753C321.184 209.496 319.507 204.789 319.507 198.48H317.507C317.507 205.142 319.286 210.419 322.98 214.159L324.402 212.753ZM319.507 198.48V173.2H317.507V198.48H319.507ZM318.507 174.2H326.827V172.2H318.507V174.2ZM325.827 173.2V198.16H327.827V173.2H325.827ZM325.827 198.16C325.827 202.676 326.799 206.25 328.918 208.702C331.061 211.182 334.226 212.344 338.219 212.344V210.344C334.617 210.344 332.086 209.309 330.432 207.394C328.753 205.452 327.827 202.433 327.827 198.16H325.827ZM338.219 212.344C342.192 212.344 345.342 211.181 347.473 208.7C349.58 206.248 350.547 202.675 350.547 198.16H348.547C348.547 202.435 347.626 205.454 345.957 207.396C344.312 209.31 341.798 210.344 338.219 210.344V212.344ZM350.547 198.16V173.2H348.547V198.16H350.547ZM349.547 174.2H357.739V172.2H349.547V174.2ZM356.739 173.2V198.48H358.739V173.2H356.739ZM356.739 198.48C356.739 204.789 355.062 209.496 351.844 212.753L353.266 214.159C356.96 210.419 358.739 205.142 358.739 198.48H356.739ZM351.844 212.753C348.666 215.971 344.151 217.64 338.155 217.64V219.64C344.532 219.64 349.617 217.853 353.266 214.159L351.844 212.753ZM398.703 218L397.883 218.572L398.181 219H398.703V218ZM389.551 204.88L390.371 204.308L390.031 203.82L389.441 203.886L389.551 204.88ZM377.711 204.944V203.944H376.711V204.944H377.711ZM377.711 218V219H378.711V218H377.711ZM369.391 218H368.391V219H369.391V218ZM369.391 173.2V172.2H368.391V173.2H369.391ZM397.935 175.12L397.526 176.033L397.531 176.035L397.935 175.12ZM404.591 180.624L405.432 180.083V180.083L404.591 180.624ZM404.399 197.84L403.574 197.275L403.567 197.285L404.399 197.84ZM397.359 203.28L396.997 202.348L395.809 202.81L396.54 203.853L397.359 203.28ZM407.663 218V219H409.584L408.482 217.427L407.663 218ZM395.695 182.544L395.062 183.318V183.318L395.695 182.544ZM377.711 180.24V179.24H376.711V180.24H377.711ZM377.711 198.096H376.711V199.096H377.711V198.096ZM395.695 195.792L396.328 196.566L396.339 196.557L395.695 195.792ZM399.523 217.428L390.371 204.308L388.731 205.452L397.883 218.572L399.523 217.428ZM389.441 203.886C389.114 203.922 388.583 203.944 387.823 203.944V205.944C388.599 205.944 389.22 205.923 389.661 205.874L389.441 203.886ZM387.823 203.944H377.711V205.944H387.823V203.944ZM376.711 204.944V218H378.711V204.944H376.711ZM377.711 217H369.391V219H377.711V217ZM370.391 218V173.2H368.391V218H370.391ZM369.391 174.2H387.823V172.2H369.391V174.2ZM387.823 174.2C391.598 174.2 394.823 174.822 397.526 176.033L398.344 174.207C395.33 172.858 391.814 172.2 387.823 172.2V174.2ZM397.531 176.035C400.275 177.245 402.332 178.959 403.75 181.165L405.432 180.083C403.778 177.51 401.398 175.555 398.339 174.205L397.531 176.035ZM403.75 181.165C405.167 183.369 405.895 186.012 405.895 189.136H407.895C407.895 185.69 407.087 182.658 405.432 180.083L403.75 181.165ZM405.895 189.136C405.895 192.335 405.108 195.033 403.574 197.275L405.224 198.405C407.018 195.783 407.895 192.678 407.895 189.136H405.895ZM403.567 197.285C402.074 199.525 399.902 201.218 396.997 202.348L397.721 204.212C400.96 202.953 403.481 201.019 405.231 198.395L403.567 197.285ZM396.54 203.853L406.844 218.573L408.482 217.427L398.178 202.707L396.54 203.853ZM407.663 217H398.703V219H407.663V217ZM399.511 189.136C399.511 186.037 398.48 183.531 396.328 181.77L395.062 183.318C396.664 184.629 397.511 186.518 397.511 189.136H399.511ZM396.328 181.77C394.202 180.031 391.187 179.24 387.439 179.24V181.24C390.945 181.24 393.433 181.985 395.062 183.318L396.328 181.77ZM387.439 179.24H377.711V181.24H387.439V179.24ZM376.711 180.24V198.096H378.711V180.24H376.711ZM377.711 199.096H387.439V197.096H377.711V199.096ZM387.439 199.096C391.187 199.096 394.202 198.305 396.328 196.566L395.062 195.018C393.433 196.351 390.945 197.096 387.439 197.096V199.096ZM396.339 196.557C398.48 194.756 399.511 192.236 399.511 189.136H397.511C397.511 191.754 396.664 193.67 395.051 195.027L396.339 196.557ZM465.635 194.704L465.171 193.818L463.073 194.917L465.324 195.654L465.635 194.704ZM471.523 198.8L470.725 199.403L470.732 199.411L471.523 198.8ZM469.219 214.864L469.792 215.683L469.8 215.678L469.219 214.864ZM433.891 218H432.891V219H433.891V218ZM433.891 173.2V172.2H432.891V173.2H433.891ZM467.107 176.336L466.517 177.143L466.525 177.149L467.107 176.336ZM469.859 190.736L469.001 190.222L469.859 190.736ZM442.211 179.728V178.728H441.211V179.728H442.211ZM442.211 192.08H441.211V193.08H442.211V192.08ZM460.643 190.544L461.198 191.376L461.203 191.373L460.643 190.544ZM460.643 181.328L460.073 182.149L460.086 182.158L460.099 182.167L460.643 181.328ZM442.211 198.544V197.544H441.211V198.544H442.211ZM442.211 211.472H441.211V212.472H442.211V211.472ZM465.324 195.654C467.621 196.407 469.408 197.659 470.725 199.403L472.321 198.197C470.737 196.101 468.598 194.622 465.946 193.754L465.324 195.654ZM470.732 199.411C472.023 201.083 472.699 203.202 472.699 205.84H474.699C474.699 202.846 473.924 200.272 472.314 198.189L470.732 199.411ZM472.699 205.84C472.699 209.422 471.344 212.117 468.638 214.05L469.8 215.678C473.067 213.344 474.699 210.024 474.699 205.84H472.699ZM468.646 214.045C465.898 215.968 461.783 217 456.163 217V219C461.977 219 466.567 217.941 469.792 215.683L468.646 214.045ZM456.163 217H433.891V219H456.163V217ZM434.891 218V173.2H432.891V218H434.891ZM433.891 174.2H454.883V172.2H433.891V174.2ZM454.883 174.2C460.061 174.2 463.895 175.226 466.517 177.143L467.697 175.529C464.601 173.265 460.286 172.2 454.883 172.2V174.2ZM466.525 177.149C469.112 179.002 470.395 181.532 470.395 184.848H472.395C472.395 180.911 470.82 177.766 467.689 175.523L466.525 177.149ZM470.395 184.848C470.395 186.907 469.922 188.688 469.001 190.222L470.716 191.25C471.844 189.371 472.395 187.227 472.395 184.848H470.395ZM469.001 190.222C468.074 191.768 466.803 192.963 465.171 193.818L466.099 195.59C468.051 194.567 469.596 193.117 470.716 191.25L469.001 190.222ZM441.211 179.728V192.08H443.211V179.728H441.211ZM442.211 193.08H453.987V191.08H442.211V193.08ZM453.987 193.08C456.982 193.08 459.428 192.556 461.198 191.376L460.088 189.712C458.786 190.58 456.795 191.08 453.987 191.08V193.08ZM461.203 191.373C463.074 190.109 464.011 188.253 464.011 185.936H462.011C462.011 187.63 461.37 188.846 460.083 189.715L461.203 191.373ZM464.011 185.936C464.011 183.585 463.079 181.716 461.187 180.489L460.099 182.167C461.365 182.988 462.011 184.191 462.011 185.936H464.011ZM461.213 180.507C459.441 179.276 456.988 178.728 453.987 178.728V180.728C456.789 180.728 458.773 181.247 460.073 182.149L461.213 180.507ZM453.987 178.728H442.211V180.728H453.987V178.728ZM455.651 212.472C458.952 212.472 461.603 211.926 463.455 210.687C465.378 209.401 466.315 207.453 466.315 205.008H464.315C464.315 206.873 463.642 208.156 462.343 209.025C460.973 209.941 458.792 210.472 455.651 210.472V212.472ZM466.315 205.008C466.315 202.563 465.378 200.615 463.455 199.329C461.603 198.09 458.952 197.544 455.651 197.544V199.544C458.792 199.544 460.973 200.075 462.343 200.991C463.642 201.86 464.315 203.143 464.315 205.008H466.315ZM455.651 197.544H442.211V199.544H455.651V197.544ZM441.211 198.544V211.472H443.211V198.544H441.211ZM442.211 212.472H455.651V210.472H442.211V212.472ZM487.379 213.456L486.667 214.159L486.671 214.163L487.379 213.456ZM482.194 173.2V172.2H481.194V173.2H482.194ZM490.514 173.2H491.514V172.2H490.514V173.2ZM513.234 173.2V172.2H512.234V173.2H513.234ZM521.427 173.2H522.427V172.2H521.427V173.2ZM516.242 213.456L515.531 212.753L515.531 212.753L516.242 213.456ZM501.842 217.64C495.847 217.64 491.307 215.971 488.086 212.749L486.671 214.163C490.362 217.853 495.465 219.64 501.842 219.64V217.64ZM488.09 212.753C484.872 209.496 483.194 204.789 483.194 198.48H481.194C481.194 205.142 482.973 210.419 486.667 214.159L488.09 212.753ZM483.194 198.48V173.2H481.194V198.48H483.194ZM482.194 174.2H490.514V172.2H482.194V174.2ZM489.514 173.2V198.16H491.514V173.2H489.514ZM489.514 198.16C489.514 202.676 490.487 206.25 492.606 208.702C494.749 211.182 497.914 212.344 501.906 212.344V210.344C498.305 210.344 495.773 209.309 494.119 207.394C492.441 205.452 491.514 202.433 491.514 198.16H489.514ZM501.906 212.344C505.88 212.344 509.029 211.181 511.161 208.7C513.268 206.248 514.234 202.675 514.234 198.16H512.234C512.234 202.435 511.313 205.454 509.644 207.396C508 209.31 505.485 210.344 501.906 210.344V212.344ZM514.234 198.16V173.2H512.234V198.16H514.234ZM513.234 174.2H521.427V172.2H513.234V174.2ZM520.427 173.2V198.48H522.427V173.2H520.427ZM520.427 198.48C520.427 204.789 518.749 209.496 515.531 212.753L516.954 214.159C520.648 210.419 522.427 205.142 522.427 198.48H520.427ZM515.531 212.753C512.353 215.971 507.839 217.64 501.842 217.64V219.64C508.22 219.64 513.305 217.853 516.954 214.159L515.531 212.753ZM536.918 217.168L536.625 218.124L536.629 218.125L536.918 217.168ZM529.302 213.264L528.389 212.857L528.087 213.535L528.649 214.021L529.302 213.264ZM532.182 206.8L532.803 206.016L531.793 205.217L531.269 206.393L532.182 206.8ZM538.902 210.384L538.568 211.326L538.577 211.33L538.586 211.333L538.902 210.384ZM554.391 210.128L553.851 209.286L553.841 209.293L554.391 210.128ZM555.479 202.768L554.789 203.492L554.806 203.509L554.825 203.525L555.479 202.768ZM552.022 200.784L552.339 199.835L552.022 200.784ZM546.263 199.184L546.501 198.213L546.494 198.211L546.263 199.184ZM537.943 196.752L537.581 197.684L537.587 197.687L537.943 196.752ZM532.503 192.976L531.742 193.625L531.75 193.635L531.759 193.645L532.503 192.976ZM532.246 179.216L531.414 178.661L531.412 178.665L532.246 179.216ZM538.327 174.352L537.926 173.436L537.92 173.438L538.327 174.352ZM556.375 173.584L556.125 174.552L556.375 173.584ZM563.223 176.528L564.149 176.904L564.456 176.148L563.777 175.696L563.223 176.528ZM560.599 182.992L560.092 183.854L561.09 184.44L561.525 183.368L560.599 182.992ZM554.454 180.368L554.185 181.331L554.454 180.368ZM540.887 181.136L540.322 180.311L540.312 180.318L540.887 181.136ZM539.862 188.688L539.192 189.43L539.2 189.437L539.209 189.445L539.862 188.688ZM543.383 190.608L543.699 189.659L543.383 190.608ZM549.143 192.208L548.904 193.179L548.918 193.182L549.143 192.208ZM557.335 194.64L556.963 195.568L556.971 195.572L556.979 195.575L557.335 194.64ZM562.775 198.416L562.022 199.075L562.031 199.085L562.775 198.416ZM563.031 212.048L562.204 211.485L562.2 211.491L562.196 211.497L563.031 212.048ZM556.951 216.848L556.55 215.932L556.951 216.848ZM546.966 217.64C543.607 217.64 540.355 217.163 537.208 216.211L536.629 218.125C539.967 219.135 543.414 219.64 546.966 219.64V217.64ZM537.212 216.212C534.101 215.258 531.699 214.012 529.956 212.507L528.649 214.021C530.661 215.759 533.336 217.115 536.625 218.124L537.212 216.212ZM530.216 213.671L533.096 207.207L531.269 206.393L528.389 212.857L530.216 213.671ZM531.562 207.584C533.498 209.115 535.84 210.358 538.568 211.326L539.237 209.442C536.675 208.532 534.536 207.386 532.803 206.016L531.562 207.584ZM538.586 211.333C541.371 212.261 544.165 212.728 546.966 212.728V210.728C544.392 210.728 541.81 210.299 539.219 209.435L538.586 211.333ZM546.966 212.728C550.366 212.728 553.076 212.19 554.94 210.963L553.841 209.293C552.462 210.2 550.223 210.728 546.966 210.728V212.728ZM554.93 210.97C556.837 209.747 557.887 208.043 557.887 205.904H555.887C555.887 207.264 555.272 208.375 553.851 209.286L554.93 210.97ZM557.887 205.904C557.887 204.344 557.299 203.019 556.132 202.011L554.825 203.525C555.536 204.139 555.887 204.904 555.887 205.904H557.887ZM556.168 202.044C555.147 201.071 553.859 200.342 552.339 199.835L551.706 201.733C553.002 202.165 554.018 202.758 554.789 203.492L556.168 202.044ZM552.339 199.835C550.894 199.354 548.944 198.813 546.501 198.213L546.024 200.155C548.445 200.75 550.335 201.276 551.706 201.733L552.339 199.835ZM546.494 198.211C543.103 197.406 540.375 196.607 538.298 195.817L537.587 197.687C539.777 198.519 542.596 199.341 546.031 200.157L546.494 198.211ZM538.304 195.82C536.363 195.067 534.68 193.9 533.246 192.307L531.759 193.645C533.397 195.465 535.341 196.816 537.581 197.684L538.304 195.82ZM533.263 192.327C531.963 190.804 531.263 188.71 531.263 185.936H529.263C529.263 189.05 530.055 191.649 531.742 193.625L533.263 192.327ZM531.263 185.936C531.263 183.651 531.87 181.603 533.081 179.767L531.412 178.665C529.978 180.839 529.263 183.272 529.263 185.936H531.263ZM533.079 179.771C534.32 177.909 536.184 176.399 538.733 175.266L537.92 173.438C535.093 174.695 532.904 176.427 531.414 178.661L533.079 179.771ZM538.727 175.268C541.298 174.143 544.482 173.56 548.31 173.56V171.56C544.289 171.56 540.816 172.171 537.926 173.436L538.727 175.268ZM548.31 173.56C550.957 173.56 553.561 173.891 556.125 174.552L556.624 172.616C553.897 171.912 551.126 171.56 548.31 171.56V173.56ZM556.125 174.552C558.681 175.212 560.856 176.152 562.668 177.36L563.777 175.696C561.749 174.344 559.359 173.321 556.624 172.616L556.125 174.552ZM562.296 176.152L559.672 182.616L561.525 183.368L564.149 176.904L562.296 176.152ZM561.105 182.13C559.07 180.935 556.943 180.026 554.724 179.405L554.185 181.331C556.233 181.904 558.202 182.745 560.092 183.854L561.105 182.13ZM554.724 179.405C552.512 178.786 550.352 178.472 548.246 178.472V180.472C550.152 180.472 552.13 180.756 554.185 181.331L554.724 179.405ZM548.246 178.472C544.882 178.472 542.188 179.034 540.322 180.311L541.451 181.961C542.828 181.019 545.041 180.472 548.246 180.472V178.472ZM540.312 180.318C538.483 181.603 537.518 183.372 537.518 185.552H539.518C539.518 184.062 540.133 182.888 541.461 181.954L540.312 180.318ZM537.518 185.552C537.518 187.096 538.072 188.417 539.192 189.43L540.533 187.946C539.861 187.338 539.518 186.568 539.518 185.552H537.518ZM539.209 189.445C540.264 190.356 541.558 191.054 543.066 191.557L543.699 189.659C542.391 189.223 541.339 188.641 540.516 187.931L539.209 189.445ZM543.066 191.557C544.511 192.038 546.461 192.579 548.904 193.179L549.381 191.237C546.96 190.642 545.07 190.116 543.699 189.659L543.066 191.557ZM548.918 193.182C552.217 193.944 554.894 194.741 556.963 195.568L557.706 193.712C555.508 192.832 552.724 192.008 549.367 191.234L548.918 193.182ZM556.979 195.575C558.961 196.328 560.637 197.492 562.022 199.075L563.527 197.757C561.925 195.927 559.975 194.574 557.69 193.705L556.979 195.575ZM562.031 199.085C563.362 200.563 564.078 202.606 564.078 205.328H566.078C566.078 202.247 565.259 199.682 563.518 197.747L562.031 199.085ZM564.078 205.328C564.078 207.606 563.454 209.649 562.204 211.485L563.857 212.611C565.338 210.436 566.078 207.999 566.078 205.328H564.078ZM562.196 211.497C561.002 213.307 559.146 214.796 556.55 215.932L557.351 217.764C560.216 216.511 562.413 214.8 563.865 212.599L562.196 211.497ZM556.55 215.932C553.979 217.057 550.796 217.64 546.966 217.64V219.64C550.988 219.64 554.461 219.029 557.351 217.764L556.55 215.932ZM573.328 173.2V172.2H572.328V173.2H573.328ZM581.648 173.2H582.648V172.2H581.648V173.2ZM581.648 218V219H582.648V218H581.648ZM573.328 218H572.328V219H573.328V218ZM573.328 174.2H581.648V172.2H573.328V174.2ZM580.648 173.2V218H582.648V173.2H580.648ZM581.648 217H573.328V219H581.648V217ZM574.328 218V173.2H572.328V218H574.328ZM633.574 173.2H634.574V172.2H633.574V173.2ZM633.574 218V219H634.574V218H633.574ZM626.726 218L625.951 218.631L626.251 219H626.726V218ZM602.022 187.664L602.797 187.033L601.022 184.852V187.664H602.022ZM602.022 218V219H603.022V218H602.022ZM593.766 218H592.766V219H593.766V218ZM593.766 173.2V172.2H592.766V173.2H593.766ZM600.614 173.2L601.389 172.569L601.089 172.2H600.614V173.2ZM625.318 203.536L624.543 204.167L626.318 206.348V203.536H625.318ZM625.318 173.2V172.2H624.318V173.2H625.318ZM632.574 173.2V218H634.574V173.2H632.574ZM633.574 217H626.726V219H633.574V217ZM627.501 217.369L602.797 187.033L601.247 188.295L625.951 218.631L627.501 217.369ZM601.022 187.664V218H603.022V187.664H601.022ZM602.022 217H593.766V219H602.022V217ZM594.766 218V173.2H592.766V218H594.766ZM593.766 174.2H600.614V172.2H593.766V174.2ZM599.839 173.831L624.543 204.167L626.093 202.905L601.389 172.569L599.839 173.831ZM626.318 203.536V173.2H624.318V203.536H626.318ZM625.318 174.2H633.574V172.2H625.318V174.2ZM679.179 211.024H680.179V210.024H679.179V211.024ZM679.179 218V219H680.179V218H679.179ZM645.578 218H644.578V219H645.578V218ZM645.578 173.2V172.2H644.578V173.2H645.578ZM678.282 173.2H679.282V172.2H678.282V173.2ZM678.282 180.176V181.176H679.282V180.176H678.282ZM653.898 180.176V179.176H652.898V180.176H653.898ZM653.898 191.824H652.898V192.824H653.898V191.824ZM675.531 191.824H676.531V190.824H675.531V191.824ZM675.531 198.672V199.672H676.531V198.672H675.531ZM653.898 198.672V197.672H652.898V198.672H653.898ZM653.898 211.024H652.898V212.024H653.898V211.024ZM678.179 211.024V218H680.179V211.024H678.179ZM679.179 217H645.578V219H679.179V217ZM646.578 218V173.2H644.578V218H646.578ZM645.578 174.2H678.282V172.2H645.578V174.2ZM677.282 173.2V180.176H679.282V173.2H677.282ZM678.282 179.176H653.898V181.176H678.282V179.176ZM652.898 180.176V191.824H654.898V180.176H652.898ZM653.898 192.824H675.531V190.824H653.898V192.824ZM674.531 191.824V198.672H676.531V191.824H674.531ZM675.531 197.672H653.898V199.672H675.531V197.672ZM652.898 198.672V211.024H654.898V198.672H652.898ZM653.898 212.024H679.179V210.024H653.898V212.024ZM692.294 217.168L692 218.124L692.004 218.125L692.294 217.168ZM684.677 213.264L683.764 212.857L683.462 213.535L684.024 214.021L684.677 213.264ZM687.557 206.8L688.178 206.016L687.168 205.217L686.644 206.393L687.557 206.8ZM694.278 210.384L693.943 211.326L693.952 211.33L693.961 211.333L694.278 210.384ZM709.766 210.128L709.226 209.286L709.216 209.293L709.766 210.128ZM710.854 202.768L710.164 203.492L710.181 203.509L710.2 203.525L710.854 202.768ZM707.398 200.784L707.714 199.835L707.398 200.784ZM701.638 199.184L701.876 198.213L701.869 198.211L701.638 199.184ZM693.318 196.752L692.956 197.684L692.962 197.687L693.318 196.752ZM687.878 192.976L687.117 193.625L687.125 193.635L687.134 193.645L687.878 192.976ZM687.622 179.216L686.789 178.661L686.787 178.665L687.622 179.216ZM693.701 174.352L693.301 173.436L693.295 173.438L693.701 174.352ZM711.75 173.584L711.5 174.552L711.75 173.584ZM718.597 176.528L719.524 176.904L719.831 176.148L719.152 175.696L718.597 176.528ZM715.974 182.992L715.467 183.854L716.465 184.44L716.9 183.368L715.974 182.992ZM709.83 180.368L709.56 181.331L709.83 180.368ZM696.261 181.136L695.697 180.311L695.687 180.318L696.261 181.136ZM695.237 188.688L694.567 189.43L694.575 189.437L694.584 189.445L695.237 188.688ZM698.758 190.608L699.074 189.659L698.758 190.608ZM704.518 192.208L704.279 193.179L704.293 193.182L704.518 192.208ZM712.709 194.64L712.338 195.568L712.346 195.572L712.354 195.575L712.709 194.64ZM718.149 198.416L717.397 199.075L717.406 199.085L718.149 198.416ZM718.406 212.048L717.579 211.485L717.575 211.491L717.571 211.497L718.406 212.048ZM712.326 216.848L711.925 215.932L712.326 216.848ZM702.341 217.64C698.982 217.64 695.73 217.163 692.583 216.211L692.004 218.125C695.342 219.135 698.789 219.64 702.341 219.64V217.64ZM692.587 216.212C689.476 215.258 687.074 214.012 685.331 212.507L684.024 214.021C686.036 215.759 688.711 217.115 692 218.124L692.587 216.212ZM685.591 213.671L688.471 207.207L686.644 206.393L683.764 212.857L685.591 213.671ZM686.937 207.584C688.873 209.115 691.215 210.358 693.943 211.326L694.612 209.442C692.05 208.532 689.911 207.386 688.178 206.016L686.937 207.584ZM693.961 211.333C696.746 212.261 699.54 212.728 702.341 212.728V210.728C699.767 210.728 697.185 210.299 694.594 209.435L693.961 211.333ZM702.341 212.728C705.741 212.728 708.451 212.19 710.315 210.963L709.216 209.293C707.837 210.2 705.598 210.728 702.341 210.728V212.728ZM710.305 210.97C712.212 209.747 713.261 208.043 713.261 205.904H711.261C711.261 207.264 710.647 208.375 709.226 209.286L710.305 210.97ZM713.261 205.904C713.261 204.344 712.674 203.019 711.507 202.011L710.2 203.525C710.911 204.139 711.261 204.904 711.261 205.904H713.261ZM711.543 202.044C710.522 201.071 709.234 200.342 707.714 199.835L707.081 201.733C708.377 202.165 709.393 202.758 710.164 203.492L711.543 202.044ZM707.714 199.835C706.269 199.354 704.319 198.813 701.876 198.213L701.399 200.155C703.82 200.75 705.71 201.276 707.081 201.733L707.714 199.835ZM701.869 198.211C698.478 197.406 695.75 196.607 693.673 195.817L692.962 197.687C695.151 198.519 697.971 199.341 701.406 200.157L701.869 198.211ZM693.679 195.82C691.738 195.067 690.055 193.9 688.621 192.307L687.134 193.645C688.772 195.465 690.716 196.816 692.956 197.684L693.679 195.82ZM688.638 192.327C687.338 190.804 686.638 188.71 686.638 185.936H684.638C684.638 189.05 685.43 191.649 687.117 193.625L688.638 192.327ZM686.638 185.936C686.638 183.651 687.245 181.603 688.456 179.767L686.787 178.665C685.353 180.839 684.638 183.272 684.638 185.936H686.638ZM688.454 179.771C689.695 177.909 691.559 176.399 694.108 175.266L693.295 173.438C690.468 174.695 688.279 176.427 686.789 178.661L688.454 179.771ZM694.102 175.268C696.673 174.143 699.857 173.56 703.685 173.56V171.56C699.664 171.56 696.191 172.171 693.301 173.436L694.102 175.268ZM703.685 173.56C706.332 173.56 708.936 173.891 711.5 174.552L711.999 172.616C709.272 171.912 706.5 171.56 703.685 171.56V173.56ZM711.5 174.552C714.056 175.212 716.231 176.152 718.043 177.36L719.152 175.696C717.124 174.344 714.734 173.321 711.999 172.616L711.5 174.552ZM717.671 176.152L715.047 182.616L716.9 183.368L719.524 176.904L717.671 176.152ZM716.48 182.13C714.445 180.935 712.318 180.026 710.099 179.405L709.56 181.331C711.608 181.904 713.577 182.745 715.467 183.854L716.48 182.13ZM710.099 179.405C707.887 178.786 705.727 178.472 703.622 178.472V180.472C705.527 180.472 707.505 180.756 709.56 181.331L710.099 179.405ZM703.622 178.472C700.257 178.472 697.563 179.034 695.697 180.311L696.826 181.961C698.203 181.019 700.416 180.472 703.622 180.472V178.472ZM695.687 180.318C693.858 181.603 692.893 183.372 692.893 185.552H694.893C694.893 184.062 695.508 182.888 696.836 181.954L695.687 180.318ZM692.893 185.552C692.893 187.096 693.447 188.417 694.567 189.43L695.908 187.946C695.236 187.338 694.893 186.568 694.893 185.552H692.893ZM694.584 189.445C695.639 190.356 696.933 191.054 698.441 191.557L699.074 189.659C697.766 189.223 696.714 188.641 695.891 187.931L694.584 189.445ZM698.441 191.557C699.886 192.038 701.836 192.579 704.279 193.179L704.756 191.237C702.335 190.642 700.445 190.116 699.074 189.659L698.441 191.557ZM704.293 193.182C707.592 193.944 710.269 194.741 712.338 195.568L713.081 193.712C710.883 192.832 708.099 192.008 704.742 191.234L704.293 193.182ZM712.354 195.575C714.336 196.328 716.012 197.492 717.397 199.075L718.902 197.757C717.3 195.927 715.35 194.574 713.065 193.705L712.354 195.575ZM717.406 199.085C718.737 200.563 719.453 202.606 719.453 205.328H721.453C721.453 202.247 720.634 199.682 718.893 197.747L717.406 199.085ZM719.453 205.328C719.453 207.606 718.829 209.649 717.579 211.485L719.232 212.611C720.713 210.436 721.453 207.999 721.453 205.328H719.453ZM717.571 211.497C716.377 213.307 714.521 214.796 711.925 215.932L712.726 217.764C715.591 216.511 717.788 214.8 719.24 212.599L717.571 211.497ZM711.925 215.932C709.354 217.057 706.171 217.64 702.341 217.64V219.64C706.363 219.64 709.836 219.029 712.726 217.764L711.925 215.932ZM732.544 217.168L732.25 218.124L732.254 218.125L732.544 217.168ZM724.927 213.264L724.014 212.857L723.712 213.535L724.274 214.021L724.927 213.264ZM727.807 206.8L728.428 206.016L727.418 205.217L726.894 206.393L727.807 206.8ZM734.528 210.384L734.193 211.326L734.202 211.33L734.211 211.333L734.528 210.384ZM750.016 210.128L749.476 209.286L749.466 209.293L750.016 210.128ZM751.104 202.768L750.414 203.492L750.431 203.509L750.45 203.525L751.104 202.768ZM747.648 200.784L747.964 199.835L747.648 200.784ZM741.888 199.184L742.126 198.213L742.119 198.211L741.888 199.184ZM733.568 196.752L733.206 197.684L733.212 197.687L733.568 196.752ZM728.128 192.976L727.367 193.625L727.375 193.635L727.384 193.645L728.128 192.976ZM727.872 179.216L727.039 178.661L727.037 178.665L727.872 179.216ZM733.951 174.352L733.551 173.436L733.545 173.438L733.951 174.352ZM752 173.584L751.75 174.552L752 173.584ZM758.847 176.528L759.774 176.904L760.081 176.148L759.402 175.696L758.847 176.528ZM756.224 182.992L755.717 183.854L756.715 184.44L757.15 183.368L756.224 182.992ZM750.08 180.368L749.81 181.331L750.08 180.368ZM736.511 181.136L735.947 180.311L735.937 180.318L736.511 181.136ZM735.487 188.688L734.817 189.43L734.825 189.437L734.834 189.445L735.487 188.688ZM739.008 190.608L739.324 189.659L739.008 190.608ZM744.768 192.208L744.529 193.179L744.543 193.182L744.768 192.208ZM752.959 194.64L752.588 195.568L752.596 195.572L752.604 195.575L752.959 194.64ZM758.399 198.416L757.647 199.075L757.656 199.085L758.399 198.416ZM758.656 212.048L757.829 211.485L757.825 211.491L757.821 211.497L758.656 212.048ZM752.576 216.848L752.175 215.932L752.576 216.848ZM742.591 217.64C739.232 217.64 735.98 217.163 732.833 216.211L732.254 218.125C735.592 219.135 739.039 219.64 742.591 219.64V217.64ZM732.837 216.212C729.726 215.258 727.324 214.012 725.581 212.507L724.274 214.021C726.286 215.759 728.961 217.115 732.25 218.124L732.837 216.212ZM725.841 213.671L728.721 207.207L726.894 206.393L724.014 212.857L725.841 213.671ZM727.187 207.584C729.123 209.115 731.465 210.358 734.193 211.326L734.862 209.442C732.3 208.532 730.161 207.386 728.428 206.016L727.187 207.584ZM734.211 211.333C736.996 212.261 739.79 212.728 742.591 212.728V210.728C740.017 210.728 737.435 210.299 734.844 209.435L734.211 211.333ZM742.591 212.728C745.991 212.728 748.701 212.19 750.565 210.963L749.466 209.293C748.087 210.2 745.848 210.728 742.591 210.728V212.728ZM750.555 210.97C752.462 209.747 753.511 208.043 753.511 205.904H751.511C751.511 207.264 750.897 208.375 749.476 209.286L750.555 210.97ZM753.511 205.904C753.511 204.344 752.924 203.019 751.757 202.011L750.45 203.525C751.161 204.139 751.511 204.904 751.511 205.904H753.511ZM751.793 202.044C750.772 201.071 749.484 200.342 747.964 199.835L747.331 201.733C748.627 202.165 749.643 202.758 750.414 203.492L751.793 202.044ZM747.964 199.835C746.519 199.354 744.569 198.813 742.126 198.213L741.649 200.155C744.07 200.75 745.96 201.276 747.331 201.733L747.964 199.835ZM742.119 198.211C738.728 197.406 736 196.607 733.923 195.817L733.212 197.687C735.401 198.519 738.221 199.341 741.656 200.157L742.119 198.211ZM733.929 195.82C731.988 195.067 730.305 193.9 728.871 192.307L727.384 193.645C729.022 195.465 730.966 196.816 733.206 197.684L733.929 195.82ZM728.888 192.327C727.588 190.804 726.888 188.71 726.888 185.936H724.888C724.888 189.05 725.68 191.649 727.367 193.625L728.888 192.327ZM726.888 185.936C726.888 183.651 727.495 181.603 728.706 179.767L727.037 178.665C725.603 180.839 724.888 183.272 724.888 185.936H726.888ZM728.704 179.771C729.945 177.909 731.809 176.399 734.358 175.266L733.545 173.438C730.718 174.695 728.529 176.427 727.039 178.661L728.704 179.771ZM734.352 175.268C736.923 174.143 740.107 173.56 743.935 173.56V171.56C739.914 171.56 736.441 172.171 733.551 173.436L734.352 175.268ZM743.935 173.56C746.582 173.56 749.186 173.891 751.75 174.552L752.249 172.616C749.522 171.912 746.75 171.56 743.935 171.56V173.56ZM751.75 174.552C754.306 175.212 756.481 176.152 758.293 177.36L759.402 175.696C757.374 174.344 754.984 173.321 752.249 172.616L751.75 174.552ZM757.921 176.152L755.297 182.616L757.15 183.368L759.774 176.904L757.921 176.152ZM756.73 182.13C754.695 180.935 752.568 180.026 750.349 179.405L749.81 181.331C751.858 181.904 753.827 182.745 755.717 183.854L756.73 182.13ZM750.349 179.405C748.137 178.786 745.977 178.472 743.872 178.472V180.472C745.777 180.472 747.755 180.756 749.81 181.331L750.349 179.405ZM743.872 178.472C740.507 178.472 737.813 179.034 735.947 180.311L737.076 181.961C738.453 181.019 740.666 180.472 743.872 180.472V178.472ZM735.937 180.318C734.108 181.603 733.143 183.372 733.143 185.552H735.143C735.143 184.062 735.758 182.888 737.086 181.954L735.937 180.318ZM733.143 185.552C733.143 187.096 733.697 188.417 734.817 189.43L736.158 187.946C735.486 187.338 735.143 186.568 735.143 185.552H733.143ZM734.834 189.445C735.889 190.356 737.183 191.054 738.691 191.557L739.324 189.659C738.016 189.223 736.964 188.641 736.141 187.931L734.834 189.445ZM738.691 191.557C740.136 192.038 742.086 192.579 744.529 193.179L745.006 191.237C742.585 190.642 740.695 190.116 739.324 189.659L738.691 191.557ZM744.543 193.182C747.842 193.944 750.519 194.741 752.588 195.568L753.331 193.712C751.133 192.832 748.349 192.008 744.992 191.234L744.543 193.182ZM752.604 195.575C754.586 196.328 756.262 197.492 757.647 199.075L759.152 197.757C757.55 195.927 755.6 194.574 753.315 193.705L752.604 195.575ZM757.656 199.085C758.987 200.563 759.703 202.606 759.703 205.328H761.703C761.703 202.247 760.884 199.682 759.143 197.747L757.656 199.085ZM759.703 205.328C759.703 207.606 759.079 209.649 757.829 211.485L759.482 212.611C760.963 210.436 761.703 207.999 761.703 205.328H759.703ZM757.821 211.497C756.627 213.307 754.771 214.796 752.175 215.932L752.976 217.764C755.841 216.511 758.038 214.8 759.49 212.599L757.821 211.497ZM752.175 215.932C749.604 217.057 746.421 217.64 742.591 217.64V219.64C746.613 219.64 750.086 219.029 752.976 217.764L752.175 215.932Z" fill="black"/>
</svg>
