<svg width="47" height="47" viewBox="0 0 47 47" fill="none" xmlns="http://www.w3.org/2000/svg">
<path d="M23.5 23.5C24.5771 23.5 25.4995 23.1162 26.2672 22.3485C27.0335 21.5822 27.4167 20.6604 27.4167 19.5834C27.4167 18.5063 27.0335 17.5839 26.2672 16.8162C25.4995 16.0499 24.5771 15.6667 23.5 15.6667C22.423 15.6667 21.5012 16.0499 20.7349 16.8162C19.9672 17.5839 19.5834 18.5063 19.5834 19.5834C19.5834 20.6604 19.9672 21.5822 20.7349 22.3485C21.5012 23.1162 22.423 23.5 23.5 23.5ZM23.5 43.0834C18.2452 38.6118 14.3207 34.4582 11.7265 30.6225C9.1311 26.7881 7.83337 23.2389 7.83337 19.975C7.83337 15.0792 9.40853 11.1788 12.5588 8.27398C15.7078 5.36912 19.3549 3.91669 23.5 3.91669C27.6452 3.91669 31.2922 5.36912 34.4412 8.27398C37.5916 11.1788 39.1667 15.0792 39.1667 19.975C39.1667 23.2389 37.8696 26.7881 35.2755 30.6225C32.6801 34.4582 28.7549 38.6118 23.5 43.0834Z" fill="#333333"/>
</svg>
