<svg width="440" height="440" viewBox="0 0 440 440" fill="none" xmlns="http://www.w3.org/2000/svg">
<g filter="url(#filter0_df_48_2229)">
<path d="M113.556 402.266C156.633 427.137 206.987 436.327 256.038 428.27C305.088 420.213 349.8 395.408 382.556 358.081C415.312 320.755 434.085 273.216 435.675 223.565C437.266 173.914 421.577 125.223 391.28 85.788C360.984 46.3532 317.955 18.6146 269.525 7.29857C221.095 -4.01746 170.261 1.78921 125.684 23.7292C81.1069 45.6692 45.5452 82.385 25.0581 127.621C4.57094 172.856 0.426015 223.813 13.3295 271.809L19.4329 270.179C6.90894 223.595 10.932 174.136 30.8166 130.231C50.7013 86.3256 85.2172 50.6895 128.483 29.3947C171.749 8.09997 221.089 2.46405 268.094 13.4473C315.1 24.4305 356.863 51.3534 386.269 89.6285C415.674 127.904 430.903 175.163 429.359 223.354C427.815 271.545 409.594 317.685 377.802 353.914C346.009 390.143 302.612 414.219 255.003 422.039C207.395 429.859 158.523 420.939 116.712 396.8L113.556 402.266Z" fill="black"/>
<path d="M112.558 411.76C106.755 408.41 104.762 400.997 108.107 395.204C111.452 389.41 118.868 387.43 124.671 390.78C130.474 394.131 132.467 401.544 129.122 407.337C125.777 413.13 118.361 415.111 112.558 411.76Z" fill="black"/>
<path d="M10.7504 281.37C4.94718 278.019 2.95429 270.607 6.29917 264.813C9.64404 259.02 17.06 257.039 22.8632 260.39C28.6664 263.74 30.6593 271.153 27.3144 276.947C23.9695 282.74 16.5536 284.72 10.7504 281.37Z" fill="black"/>
</g>
<defs>
<filter id="filter0_df_48_2229" x="0.676758" y="0.653458" width="439.109" height="438.46" filterUnits="userSpaceOnUse" color-interpolation-filters="sRGB">
<feFlood flood-opacity="0" result="BackgroundImageFix"/>
<feColorMatrix in="SourceAlpha" type="matrix" values="0 0 0 0 0 0 0 0 0 0 0 0 0 0 0 0 0 0 127 0" result="hardAlpha"/>
<feOffset dy="4"/>
<feGaussianBlur stdDeviation="2"/>
<feComposite in2="hardAlpha" operator="out"/>
<feColorMatrix type="matrix" values="0 0 0 0 0 0 0 0 0 0 0 0 0 0 0 0 0 0 0.25 0"/>
<feBlend mode="normal" in2="BackgroundImageFix" result="effect1_dropShadow_48_2229"/>
<feBlend mode="normal" in="SourceGraphic" in2="effect1_dropShadow_48_2229" result="shape"/>
<feGaussianBlur stdDeviation="0.5" result="effect2_foregroundBlur_48_2229"/>
</filter>
</defs>
</svg>
