<svg width="47" height="47" viewBox="0 0 47 47" fill="none" xmlns="http://www.w3.org/2000/svg">
<path d="M7.93125 41.125C7.34375 41.125 6.85417 40.9292 6.4625 40.5375C6.07083 40.1458 5.875 39.6563 5.875 39.0688V31.1375C5.875 30.6806 6.02187 30.2804 6.31562 29.937C6.60937 29.595 6.98472 29.375 7.44167 29.2771L14.1979 27.9062C14.6549 27.841 15.1203 27.8814 15.5942 28.0277C16.0668 28.1752 16.45 28.3958 16.7438 28.6896L21.3458 33.2917C23.8264 31.7903 26.0948 30.0115 28.151 27.9552C30.2073 25.899 31.9208 23.6958 33.2917 21.3458L28.5917 16.5479C28.2979 16.2542 28.1099 15.9193 28.0277 15.5433C27.9467 15.1686 27.9389 14.7528 28.0042 14.2958L29.2771 7.44167C29.3424 6.98472 29.5545 6.60937 29.9135 6.31562C30.2726 6.02187 30.6806 5.875 31.1375 5.875H39.0688C39.6563 5.875 40.1458 6.07083 40.5375 6.4625C40.9292 6.85417 41.125 7.34375 41.125 7.93125C41.125 12.1417 40.1863 16.2457 38.3089 20.2433C36.4328 24.2422 33.9523 27.7835 30.8673 30.8673C27.7835 33.9523 24.2429 36.4328 20.2453 38.3089C16.2463 40.1863 12.1417 41.125 7.93125 41.125Z" fill="#333333"/>
</svg>
